<svg width="40" height="40" viewBox="0 0 40 40" fill="none" xmlns="http://www.w3.org/2000/svg">
<rect width="40" height="40" rx="5" fill="#FF4238"/>
<path d="M8.75 27.5C9.08152 27.5 9.39946 27.3683 9.63388 27.1339C9.8683 26.8995 10 26.5815 10 26.25C10 25.9185 9.8683 25.6005 9.63388 25.3661C9.39946 25.1317 9.08152 25 8.75 25C8.41848 25 8.10054 25.1317 7.86612 25.3661C7.6317 25.6005 7.5 25.9185 7.5 26.25C7.5 26.5815 7.6317 26.8995 7.86612 27.1339C8.10054 27.3683 8.41848 27.5 8.75 27.5Z" fill="white" stroke="white" stroke-width="1.5" stroke-linecap="round" stroke-linejoin="round"/>
<path d="M31.25 14.1903V25.8078C31.2501 25.9417 31.2143 26.0732 31.1464 26.1886C31.0784 26.304 30.9809 26.3991 30.8637 26.464L20.3638 32.2965C20.2524 32.3583 20.1273 32.3907 20 32.3907C19.8727 32.3907 19.7476 32.3583 19.6362 32.2965L9.13625 26.464C9.01915 26.3991 8.92157 26.304 8.85364 26.1886C8.78572 26.0732 8.74994 25.9417 8.75 25.8078V14.1903C8.75016 14.0566 8.78605 13.9254 8.85396 13.8102C8.92187 13.695 9.01933 13.6001 9.13625 13.5353L19.6362 7.70154C19.7476 7.63981 19.8727 7.60742 20 7.60742C20.1273 7.60742 20.2524 7.63981 20.3638 7.70154L30.8637 13.5353C30.9807 13.6001 31.0781 13.695 31.146 13.8102C31.214 13.9254 31.2498 14.0566 31.25 14.1903Z" stroke="white" stroke-width="1.5" stroke-linecap="round" stroke-linejoin="round"/>
<path d="M9.41016 14.1157L19.6352 19.7957C19.7466 19.8577 19.872 19.8902 19.9995 19.8902C20.127 19.8902 20.2525 19.8577 20.3639 19.7957L30.6252 14.0957M20.0002 31.2482V19.9982" stroke="white" stroke-width="1.5" stroke-linecap="round" stroke-linejoin="round"/>
<path d="M20.4 11.5V10M20.4 11.5C19.6253 11.5 19 11.5 19 12.5C19 14 21.8 14 21.8 15.5C21.8 16.5 21.1747 16.5 20.4 16.5M20.4 11.5C21.1747 11.5 21.8 11.88 21.8 12.5M19 15.5C19 16.25 19.6253 16.5 20.4 16.5M20.4 16.5V18" stroke="white" stroke-linecap="round" stroke-linejoin="round"/>
</svg>
