<svg width="40" height="40" viewBox="0 0 40 40" fill="none" xmlns="http://www.w3.org/2000/svg">
<rect width="40" height="40" rx="5" fill="#ffffff"/>
<g clip-path="url(#clip0_286_1194)">
<path d="M19.9291 14.5717V11.3574M19.9291 14.5717C18.1506 14.5717 16.7148 14.5717 16.7148 16.7146C16.7148 19.9289 23.1434 19.9289 23.1434 23.1431C23.1434 25.286 21.7077 25.286 19.9291 25.286M19.9291 14.5717C21.7077 14.5717 23.1434 15.386 23.1434 16.7146M16.7148 23.1431C16.7148 24.7503 18.1506 25.286 19.9291 25.286M19.9291 25.286V28.5003" stroke="red" stroke-linecap="round" stroke-linejoin="round"/>
<path d="M19.9286 33.8571C27.6211 33.8571 33.8571 27.6211 33.8571 19.9286C33.8571 12.236 27.6211 6 19.9286 6C12.236 6 6 12.236 6 19.9286C6 27.6211 12.236 33.8571 19.9286 33.8571Z" stroke="red" stroke-linecap="round" stroke-linejoin="round"/>
</g>
<defs>
<clipPath id="clip0_286_1194">
<rect width="30" height="30" fill="#0000" transform="translate(5 5)"/>
</clipPath>
</defs>
</svg>
