<svg width="40" height="40" viewBox="0 0 40 40" fill="none" xmlns="http://www.w3.org/2000/svg">
<rect width="40" height="40" rx="5" fill="#FF4238"/>
<path d="M9.25 27.8906C9.58152 27.8906 9.89946 27.7589 10.1339 27.5245C10.3683 27.2901 10.5 26.9721 10.5 26.6406C10.5 26.3091 10.3683 25.9912 10.1339 25.7567C9.89946 25.5223 9.58152 25.3906 9.25 25.3906C8.91848 25.3906 8.60054 25.5223 8.36612 25.7567C8.1317 25.9912 8 26.3091 8 26.6406C8 26.9721 8.1317 27.2901 8.36612 27.5245C8.60054 27.7589 8.91848 27.8906 9.25 27.8906Z" fill="white" stroke="white" stroke-width="1.5" stroke-linecap="round" stroke-linejoin="round"/>
<path d="M31.75 14.5829V26.2004C31.7501 26.3343 31.7143 26.4658 31.6464 26.5812C31.5784 26.6966 31.4809 26.7917 31.3637 26.8566L20.8638 32.6891C20.7524 32.7508 20.6273 32.7832 20.5 32.7832C20.3727 32.7832 20.2476 32.7508 20.1362 32.6891L9.63625 26.8566C9.51915 26.7917 9.42157 26.6966 9.35364 26.5812C9.28572 26.4658 9.24994 26.3343 9.25 26.2004V14.5829C9.25016 14.4492 9.28605 14.3179 9.35396 14.2028C9.42187 14.0876 9.51933 13.9927 9.63625 13.9279L20.1362 8.09411C20.2476 8.03239 20.3727 8 20.5 8C20.6273 8 20.7524 8.03239 20.8638 8.09411L31.3637 13.9279C31.4807 13.9927 31.5781 14.0876 31.646 14.2028C31.714 14.3179 31.7498 14.4492 31.75 14.5829Z" stroke="white" stroke-width="1.5" stroke-linecap="round" stroke-linejoin="round"/>
<path d="M9.91016 14.5083L20.1352 20.1883C20.2466 20.2502 20.372 20.2827 20.4995 20.2827C20.627 20.2827 20.7525 20.2502 20.8639 20.1883L31.1252 14.4883M20.5002 31.6408V20.3908" stroke="white" stroke-width="1.5" stroke-linecap="round" stroke-linejoin="round"/>
</svg>
