<svg width="30" height="31" viewBox="0 0 30 31" fill="none" xmlns="http://www.w3.org/2000/svg">
<path d="M25.2131 8.93662H22.8869L17.1794 14.6416C17.376 15.1426 17.394 15.696 17.2306 16.2088C17.0671 16.7215 16.7321 17.1623 16.2818 17.4571C15.8316 17.7519 15.2935 17.8826 14.7582 17.8274C14.2229 17.7721 13.7229 17.5342 13.3424 17.1537C12.9618 16.7731 12.7239 16.2731 12.6686 15.7378C12.6134 15.2025 12.7441 14.6644 13.0389 14.2142C13.3337 13.7639 13.7745 13.4289 14.2873 13.2654C14.8 13.102 15.3534 13.12 15.8544 13.3166L21.5606 7.61037V5.28412C21.5608 4.97285 21.6844 4.67434 21.9044 4.45412L24.0669 2.29162C24.1068 2.25123 24.1571 2.22254 24.2122 2.20865C24.2672 2.19477 24.3251 2.19623 24.3794 2.21287C24.4906 2.24537 24.5731 2.33787 24.5956 2.45162L25.1706 5.32787L28.0456 5.90287C28.1581 5.92537 28.2506 6.00787 28.2831 6.11912C28.2996 6.17316 28.301 6.23064 28.2874 6.28545C28.2737 6.34026 28.2455 6.39034 28.2056 6.43037L26.0419 8.59287C25.9331 8.70183 25.8039 8.78827 25.6617 8.84725C25.5195 8.90623 25.3671 8.9366 25.2131 8.93662Z" fill="white"/>
<path d="M3.28125 15.5C3.28125 18.608 4.5159 21.5887 6.71359 23.7864C8.91128 25.9841 11.892 27.2188 15 27.2188C16.5389 27.2188 18.0628 26.9156 19.4846 26.3267C20.9064 25.7378 22.1982 24.8746 23.2864 23.7864C24.3746 22.6982 25.2378 21.4064 25.8267 19.9846C26.4156 18.5628 26.7188 17.0389 26.7188 15.5C26.7188 14.3775 26.5613 13.2925 26.2675 12.2663C26.2091 12.0306 26.2444 11.7815 26.3659 11.5714C26.4875 11.3612 26.6858 11.2064 26.9192 11.1395C27.1526 11.0727 27.4028 11.0989 27.6172 11.2128C27.8316 11.3266 27.9935 11.5192 28.0688 11.75C28.4112 12.9425 28.5938 14.2 28.5938 15.5C28.5938 23.0075 22.5075 29.0938 15 29.0938C7.4925 29.0938 1.40625 23.0075 1.40625 15.5C1.40625 7.99251 7.4925 1.90626 15 1.90626C16.2688 1.90501 17.53 2.08126 18.75 2.43001C18.869 2.46337 18.9801 2.51992 19.0772 2.59641C19.1742 2.67289 19.2551 2.76779 19.3154 2.87567C19.3756 2.98354 19.4139 3.10225 19.4281 3.22498C19.4423 3.3477 19.4321 3.47202 19.3981 3.59079C19.364 3.70956 19.3069 3.82044 19.2299 3.91704C19.1529 4.01365 19.0575 4.09408 18.9493 4.15372C18.8411 4.21335 18.7222 4.25101 18.5994 4.26453C18.4766 4.27805 18.3523 4.26717 18.2337 4.23251C17.1821 3.93217 16.0937 3.78028 15 3.78126C11.892 3.78126 8.91128 5.01591 6.71359 7.2136C4.5159 9.41129 3.28125 12.392 3.28125 15.5Z" fill="white"/>
<path d="M8.90471 15.4997C8.9082 16.3276 9.08039 17.1462 9.41077 17.9053C9.74115 18.6644 10.2228 19.3483 10.8263 19.915C11.4298 20.4818 12.1424 20.9197 12.9208 21.2018C13.6991 21.484 14.5268 21.6045 15.3533 21.5561C16.1798 21.5077 16.9878 21.2914 17.7279 20.9203C18.4679 20.5493 19.1246 20.0312 19.6579 19.3979C20.1911 18.7645 20.5896 18.0292 20.8291 17.2367C21.0686 16.4442 21.1441 15.6111 21.051 14.7885C21.0247 14.6219 21.044 14.4513 21.1068 14.2947C21.1697 14.1382 21.2736 14.0016 21.4078 13.8994C21.5419 13.7971 21.7012 13.7331 21.8688 13.714C22.0364 13.6949 22.206 13.7215 22.3597 13.791C22.6735 13.931 22.8847 14.2297 22.9122 14.5722C23.1063 16.2163 22.7834 17.88 21.9883 19.332C21.1933 20.7841 19.9656 21.9524 18.4759 22.6746C16.9863 23.3967 15.3086 23.6368 13.6762 23.3615C12.0438 23.0862 10.5377 22.3092 9.36721 21.1385C8.19708 19.969 7.41987 18.4644 7.14336 16.8333C6.86686 15.2023 7.10478 13.5256 7.82411 12.0358C8.54344 10.546 9.70854 9.31701 11.1578 8.51922C12.6071 7.72143 14.2687 7.3944 15.9122 7.58349C16.0365 7.59502 16.1571 7.63123 16.2672 7.69001C16.3773 7.74879 16.4745 7.82894 16.5532 7.92578C16.6319 8.02262 16.6904 8.1342 16.7254 8.25396C16.7604 8.37373 16.7712 8.49928 16.757 8.62325C16.7429 8.74723 16.7042 8.86713 16.6431 8.97593C16.582 9.08473 16.4998 9.18025 16.4013 9.25688C16.3028 9.3335 16.1901 9.3897 16.0696 9.42217C15.9491 9.45465 15.8234 9.46274 15.6997 9.44599C14.846 9.34729 13.9811 9.43024 13.1617 9.68941C12.3423 9.94858 11.5869 10.3781 10.9453 10.9498C10.3036 11.5215 9.79006 12.2224 9.43838 13.0065C9.08671 13.7907 8.90484 14.6403 8.90471 15.4997Z" fill="white"/>
</svg>
